<svg xmlns="http://www.w3.org/2000/svg" viewBox="0 0 256 256" role="img" aria-labelledby="title"><title id="title">Игрушки</title><rect width="256" height="256" rx="54" fill="#E8F3EC"/><g transform="translate(44 44) scale(7)" fill="none" stroke="#286A55" stroke-width="1.75" stroke-linecap="round" stroke-linejoin="round"><circle cx="7" cy="5" r="2"/><circle cx="17" cy="5" r="2"/><circle cx="12" cy="9" r="6"/><circle cx="10" cy="8.5" r=".5" fill="#286A55" stroke="none"/><circle cx="14" cy="8.5" r=".5" fill="#286A55" stroke="none"/><ellipse cx="12" cy="11" rx="2" ry="1.5"/><path d="M12 10.5v1.5m-2 1.5a5 5 0 0 0-3 4.5c0 2.5 2 4 5 4s5-1.5 5-4a5 5 0 0 0-3-4.5M7 16l-3 2m13-2 3 2M9 21l-1 1m7-1 1 1"/></g></svg>